PathFileType	4	(X/Y/Z)	D:\TRACE\v60_Jaco2_6-2-23\BothDRS_Motion1_3-platform.trc
DataRate	CameraRate	NumFrames	NumMarkers	Units	OrigDataRate	OrigDataStartFrame	OrigNumFrames
100.00	100.00	      36	5	mm	100.00	1769	      7073
Frame#	Time	Left_Front			Right_Front			Left_Aft			Right_Aft			Post			
		X1	Y1	Z1	X2	Y2	Z2	X3	Y3	Z3	X4	Y4	Z4	X5	Y5	Z5	

1769	17.680	-837.84692	-0.84599	-640.71893	732.43658	0.18421	-646.23438	-746.01831	14.77496	494.20065	695.98901	13.22738	503.07648	-51.60197	1293.09009	-982.96411	
1770	17.690	-837.08911	-1.32063	-640.94861	733.01782	-0.26329	-646.31476	-745.03241	14.84707	493.91391	696.49579	13.47799	502.99222	-51.18030	1292.57800	-983.76971	
1771	17.700	-836.32379	-2.15487	-641.38458	733.47754	-0.77054	-646.40857	-744.59143	15.41056	493.99451	697.69806	14.68109	503.60486	-50.22568	1291.71289	-984.96179	
1772	17.710	-835.77380	-2.70706	-641.24664	734.20367	-1.28010	-646.57623	-743.97668	15.58698	493.92853	698.49390	15.01150	503.39694	-49.64596	1290.97717	-985.84137	
1773	17.720	-834.88763	-2.93408	-641.41498	735.01147	-1.59895	-646.69824	-743.53845	16.12891	493.82260	699.34003	15.32958	503.33371	-48.50178	1290.13220	-987.28284	
1774	17.730	-834.42517	-3.01795	-641.55194	735.68396	-2.01281	-646.75409	-742.82538	16.41250	493.80731	699.81647	15.53302	503.19806	-47.91578	1289.56226	-988.78741	
1775	17.740	-833.63599	-3.67058	-641.67682	736.38245	-2.44046	-646.77124	-742.05652	16.59079	493.46027	700.53131	15.90797	503.03879	-47.45497	1288.98364	-990.13983	
1776	17.750	-832.85681	-4.35147	-641.77173	737.03900	-2.76750	-646.83881	-741.02649	16.94128	493.42673	701.31146	16.21643	502.86914	-47.03079	1288.40637	-991.28156	
1777	17.760	-832.30005	-4.83602	-641.67505	737.60742	-3.21980	-646.96625	-740.53650	17.00712	493.32635	702.00598	16.50697	502.69943	-46.03610	1287.74695	-992.27661	
1778	17.770	-831.77667	-5.40053	-641.73450	738.24945	-3.96945	-647.18958	-739.82959	17.21745	493.16776	702.52350	16.79655	502.59021	-45.34612	1286.86450	-993.16193	
1779	17.780	-830.85260	-5.67968	-642.05286	739.02045	-4.40058	-647.26501	-738.95172	17.58258	493.02072	703.32013	17.13198	502.51559	-44.90345	1286.38770	-993.97852	
1780	17.790	-829.95502	-6.23007	-642.17596	740.07770	-4.63727	-647.31519	-738.27863	18.04134	492.97119	704.37756	17.55022	502.36530	-44.03111	1285.58325	-994.52142	
1781	17.800	-829.44952	-6.41821	-642.14960	740.66516	-5.00063	-647.56244	-737.76331	18.40727	492.85825	704.90979	17.90957	502.32452	-42.80318	1284.79614	-995.46521	
1782	17.810	-828.78058	-6.81008	-642.40222	741.38434	-5.64999	-647.53558	-736.93835	18.82754	492.69205	705.59741	18.09921	502.09778	-42.60781	1284.24524	-995.99933	
1783	17.820	-828.08063	-7.11293	-642.53595	742.08014	-6.07349	-647.57886	-735.77380	18.68743	492.36319	706.63702	18.33545	501.98145	-41.69773	1283.69666	-996.72632	
1784	17.830	-826.84784	-7.77046	-642.66815	742.74683	-6.39762	-647.85968	-735.04633	18.91915	492.41693	707.14734	18.52975	501.97299	-41.26318	1283.00012	-997.41852	
1785	17.840	-826.20795	-8.04703	-642.54938	743.71216	-6.82108	-647.89313	-734.21710	19.17346	492.37360	707.79199	19.06544	502.00967	-39.91614	1282.43799	-998.46008	
1786	17.850	-825.61182	-8.42919	-642.60022	744.50775	-7.03637	-647.86938	-733.81317	19.75967	492.32730	708.82031	19.39148	501.83054	-39.51723	1282.03906	-998.91656	
1787	17.860	-824.82214	-8.91446	-642.75171	745.30737	-7.46373	-647.89392	-732.95074	20.10328	492.27795	709.81616	19.61036	501.70435	-38.52784	1281.53015	-999.81531	
1788	17.870	-823.85010	-9.58473	-642.67963	746.10382	-7.86406	-648.14148	-732.34424	20.39250	492.04556	710.36963	19.73793	501.61334	-37.75008	1280.80786	-1001.11542	
1789	17.880	-822.92456	-9.97276	-642.68512	746.78607	-8.33491	-648.27020	-731.40588	20.79496	492.03009	711.22052	20.05092	501.55972	-36.87000	1280.20239	-1001.93616	
1790	17.890	-822.14868	-10.27134	-642.90363	747.74719	-8.78798	-648.33905	-730.89539	21.28722	491.99814	712.31232	20.46745	501.31561	-36.03469	1279.55444	-1002.88782	
1791	17.900	-821.30829	-10.54161	-643.15765	748.75635	-9.01055	-648.31891	-730.30762	21.95696	491.82303	713.02881	20.79091	501.33688	-34.96032	1278.86292	-1003.43134	
1792	17.910	-820.32245	-10.77614	-643.24762	749.46027	-9.18414	-648.37921	-728.54657	21.00339	491.55905	713.83783	20.96004	501.25458	-34.29016	1278.24707	-1004.74640	
1793	17.920	-819.54456	-11.21865	-643.15137	750.34680	-9.74557	-648.49774	-727.53546	21.23942	491.36288	714.82129	21.12397	501.10297	-33.78527	1277.89001	-1005.46503	
1794	17.930	-818.73346	-11.53880	-643.18121	751.35358	-10.01941	-648.55267	-726.83130	21.34404	491.12848	715.47168	21.29449	501.06842	-32.33014	1277.42749	-1006.20868	
1795	17.940	-817.92883	-11.86384	-643.63934	752.16821	-10.40975	-648.73035	-725.48456	21.59003	491.21896	716.52698	21.67736	501.06607	-31.49497	1277.00977	-1006.99036	
1796	17.950	-816.88416	-12.22975	-643.89850	752.90991	-10.78208	-648.67615	-725.12445	21.97146	491.01764	717.33594	21.89372	500.95157	-30.98929	1276.42139	-1007.57703	
1797	17.960	-816.08447	-12.61215	-643.42841	753.77026	-10.93595	-648.77338	-724.13068	22.15519	491.05637	718.38812	22.28752	500.93744	-30.10126	1275.74573	-1008.15167	
1798	17.970	-815.22540	-12.98045	-643.35175	754.76636	-11.43256	-648.98395	-723.24670	22.43042	490.97644	719.29187	22.50713	500.84711	-28.90322	1275.17969	-1008.99664	
1799	17.980	-814.36316	-13.29264	-643.68256	755.72028	-11.80091	-649.03162	-721.86407	21.87673	491.46021	720.03094	22.60129	500.56552	-28.42368	1274.77954	-1009.45392	
1800	17.990	-813.44598	-13.94846	-643.96246	756.38605	-11.97326	-648.85803	-721.40613	22.59877	490.59668	720.78210	22.65105	500.37808	-27.48228	1274.25830	-1010.09961	
1801	18.000	-812.54059	-14.13820	-643.77307	757.63000	-12.38680	-649.07202	-720.17517	22.74354	490.70230	721.97668	23.07439	500.33481	-26.36325	1273.78992	-1010.50787	
1802	18.010	-811.56708	-14.24595	-643.74176	758.55933	-12.68142	-649.18610	-719.47198	22.83620	490.74536	722.67389	23.39947	500.24054	-25.63389	1273.51843	-1011.16913	
1803	18.020	-810.34290	-14.39083	-644.19397	759.15289	-12.69781	-649.35663	-718.45660	23.40079	490.67334	723.47516	23.65592	500.16501	-25.05010	1272.99939	-1011.65265	
1804	18.030	-809.77887	-14.39927	-644.15295	760.26501	-13.01905	-649.37073	-717.62598	23.56572	490.57028	724.68420	23.67138	499.93436	-23.55503	1272.27405	-1012.35938	
